<svg xmlns="http://www.w3.org/2000/svg" xmlns:xlink="http://www.w3.org/1999/xlink" width="500" zoomAndPan="magnify" viewBox="0 0 375 374.999991" height="500" preserveAspectRatio="xMidYMid meet" version="1.0"><defs><g/></defs><rect x="-37.5" width="450" fill="#ffffff" y="-37.499999" height="449.999989" fill-opacity="1"/><rect x="-37.5" width="450" fill="#ffffff" y="-37.499999" height="449.999989" fill-opacity="1"/><rect x="-37.5" width="450" fill="#000000" y="-37.499999" height="449.999989" fill-opacity="1"/><g fill="#f4f4f4" fill-opacity="1"><g transform="translate(4.136723, 174.395324)"><g><path d="M 9.6875 0 L 9.6875 -79.96875 L 57.625 -79.96875 L 57.625 -71.375 L 19.359375 -71.375 L 19.359375 -44.359375 L 54.046875 -44.359375 L 54.046875 -35.765625 L 19.359375 -35.765625 L 19.359375 0 Z M 9.6875 0 "/></g></g></g><g fill="#f4f4f4" fill-opacity="1"><g transform="translate(68.642761, 174.395324)"><g><path d="M 73.09375 -79.96875 L 73.09375 0 L 63.71875 0 L 20.140625 -62.78125 L 19.359375 -62.78125 L 19.359375 0 L 9.6875 0 L 9.6875 -79.96875 L 19.046875 -79.96875 L 62.78125 -17.03125 L 63.5625 -17.03125 L 63.5625 -79.96875 Z M 73.09375 -79.96875 "/></g></g></g><g fill="#f4f4f4" fill-opacity="1"><g transform="translate(151.422907, 174.395324)"><g><path d="M 34.359375 0 L 9.6875 0 L 9.6875 -79.96875 L 35.453125 -79.96875 C 43.210938 -79.96875 49.847656 -78.375 55.359375 -75.1875 C 60.878906 -72 65.109375 -67.429688 68.046875 -61.484375 C 70.992188 -55.535156 72.46875 -48.421875 72.46875 -40.140625 C 72.46875 -31.804688 70.984375 -24.640625 68.015625 -18.640625 C 65.046875 -12.640625 60.722656 -8.03125 55.046875 -4.8125 C 49.378906 -1.601562 42.484375 0 34.359375 0 Z M 19.359375 -8.59375 L 33.734375 -8.59375 C 43.648438 -8.59375 51.019531 -11.410156 55.84375 -17.046875 C 60.675781 -22.679688 63.09375 -30.378906 63.09375 -40.140625 C 63.09375 -49.828125 60.722656 -57.453125 55.984375 -63.015625 C 51.253906 -68.585938 44.203125 -71.375 34.828125 -71.375 L 19.359375 -71.375 Z M 19.359375 -8.59375 "/></g></g></g><g fill="#f4f4f4" fill-opacity="1"><g transform="translate(230.454518, 174.395324)"><g><path d="M 9.6875 0 L 9.6875 -79.96875 L 36.703125 -79.96875 C 42.953125 -79.96875 48.078125 -78.90625 52.078125 -76.78125 C 56.085938 -74.65625 59.054688 -71.742188 60.984375 -68.046875 C 62.910156 -64.359375 63.875 -60.15625 63.875 -55.4375 C 63.875 -50.132812 62.65625 -45.507812 60.21875 -41.5625 C 57.789062 -37.625 54.023438 -34.78125 48.921875 -33.03125 L 67 0 L 55.75 0 L 38.890625 -31.28125 C 38.234375 -31.25 37.554688 -31.234375 36.859375 -31.234375 L 19.359375 -31.234375 L 19.359375 0 Z M 19.359375 -39.984375 L 36.546875 -39.984375 C 42.953125 -39.984375 47.519531 -41.363281 50.25 -44.125 C 52.988281 -46.882812 54.359375 -50.65625 54.359375 -55.4375 C 54.359375 -60.257812 52.984375 -64.117188 50.234375 -67.015625 C 47.484375 -69.921875 42.867188 -71.375 36.390625 -71.375 L 19.359375 -71.375 Z M 19.359375 -39.984375 "/></g></g></g><g fill="#f4f4f4" fill-opacity="1"><g transform="translate(300.739548, 174.395324)"><g><path d="M 53.421875 -59.96875 C 52.953125 -63.925781 51.050781 -67 47.71875 -69.1875 C 44.382812 -71.375 40.296875 -72.46875 35.453125 -72.46875 C 30.140625 -72.46875 25.867188 -71.210938 22.640625 -68.703125 C 19.421875 -66.191406 17.8125 -63.019531 17.8125 -59.1875 C 17.8125 -56.320312 18.6875 -54.007812 20.4375 -52.25 C 22.195312 -50.5 24.28125 -49.132812 26.6875 -48.15625 C 29.09375 -47.1875 31.285156 -46.441406 33.265625 -45.921875 L 41.390625 -43.734375 C 43.472656 -43.179688 45.796875 -42.421875 48.359375 -41.453125 C 50.921875 -40.492188 53.378906 -39.1875 55.734375 -37.53125 C 58.085938 -35.882812 60.03125 -33.769531 61.5625 -31.1875 C 63.101562 -28.613281 63.875 -25.453125 63.875 -21.703125 C 63.875 -17.390625 62.75 -13.488281 60.5 -10 C 58.25 -6.507812 54.96875 -3.734375 50.65625 -1.671875 C 46.351562 0.378906 41.128906 1.40625 34.984375 1.40625 C 26.390625 1.40625 19.566406 -0.625 14.515625 -4.6875 C 9.472656 -8.75 6.71875 -14.054688 6.25 -20.609375 L 16.25 -20.609375 C 16.507812 -17.597656 17.53125 -15.109375 19.3125 -13.140625 C 21.09375 -11.171875 23.351562 -9.710938 26.09375 -8.765625 C 28.84375 -7.816406 31.804688 -7.34375 34.984375 -7.34375 C 38.679688 -7.34375 42 -7.945312 44.9375 -9.15625 C 47.882812 -10.363281 50.21875 -12.054688 51.9375 -14.234375 C 53.65625 -16.410156 54.515625 -18.953125 54.515625 -21.859375 C 54.515625 -24.515625 53.769531 -26.675781 52.28125 -28.34375 C 50.800781 -30.007812 48.847656 -31.363281 46.421875 -32.40625 C 44.003906 -33.445312 41.390625 -34.359375 38.578125 -35.140625 L 28.734375 -37.953125 C 22.484375 -39.742188 17.535156 -42.304688 13.890625 -45.640625 C 10.253906 -48.972656 8.4375 -53.332031 8.4375 -58.71875 C 8.4375 -63.195312 9.648438 -67.109375 12.078125 -70.453125 C 14.515625 -73.796875 17.796875 -76.398438 21.921875 -78.265625 C 26.046875 -80.128906 30.660156 -81.0625 35.765625 -81.0625 C 40.921875 -81.0625 45.5 -80.140625 49.5 -78.296875 C 53.507812 -76.460938 56.691406 -73.957031 59.046875 -70.78125 C 61.410156 -67.613281 62.65625 -64.007812 62.78125 -59.96875 Z M 53.421875 -59.96875 "/></g></g></g><g fill="#f4f4f4" fill-opacity="1"><g transform="translate(124.007809, 300.202816)"><g><path d="M 35.140625 -59.96875 L 35.140625 -52.171875 L 21.703125 -52.171875 L 21.703125 0 L 12.5 0 L 12.5 -52.171875 L 2.8125 -52.171875 L 2.8125 -59.96875 L 12.5 -59.96875 L 12.5 -68.25 C 12.5 -71.6875 13.304688 -74.550781 14.921875 -76.84375 C 16.535156 -79.132812 18.628906 -80.851562 21.203125 -82 C 23.773438 -83.144531 26.492188 -83.71875 29.359375 -83.71875 C 31.628906 -83.71875 33.476562 -83.535156 34.90625 -83.171875 C 36.332031 -82.804688 37.398438 -82.46875 38.109375 -82.15625 L 35.453125 -74.1875 C 34.984375 -74.34375 34.335938 -74.535156 33.515625 -74.765625 C 32.703125 -75.003906 31.628906 -75.125 30.296875 -75.125 C 27.253906 -75.125 25.0625 -74.351562 23.71875 -72.8125 C 22.375 -71.28125 21.703125 -69.03125 21.703125 -66.0625 L 21.703125 -59.96875 Z M 35.140625 -59.96875 "/></g></g></g><g fill="#f4f4f4" fill-opacity="1"><g transform="translate(163.679803, 300.202816)"><g><path d="M 14.0625 23.265625 C 12.5 23.265625 11.101562 23.140625 9.875 22.890625 C 8.65625 22.648438 7.8125 22.410156 7.34375 22.171875 L 9.6875 14.0625 C 13.039062 14.914062 15.84375 14.894531 18.09375 14 C 20.34375 13.101562 22.273438 10.414062 23.890625 5.9375 L 25.921875 0.3125 L 3.75 -59.96875 L 13.75 -59.96875 L 30.296875 -12.1875 L 30.921875 -12.1875 L 47.484375 -59.96875 L 57.46875 -59.96875 L 31.703125 9.6875 C 28.316406 18.738281 22.4375 23.265625 14.0625 23.265625 Z M 14.0625 23.265625 "/></g></g></g><g fill="#f4f4f4" fill-opacity="1"><g transform="translate(224.905874, 300.202816)"><g><path d="M 8.4375 0 L 8.4375 -59.96875 L 17.65625 -59.96875 L 17.65625 0 Z M 13.125 -69.96875 C 11.320312 -69.96875 9.773438 -70.578125 8.484375 -71.796875 C 7.203125 -73.023438 6.5625 -74.5 6.5625 -76.21875 C 6.5625 -77.9375 7.203125 -79.40625 8.484375 -80.625 C 9.773438 -81.851562 11.320312 -82.46875 13.125 -82.46875 C 14.914062 -82.46875 16.453125 -81.851562 17.734375 -80.625 C 19.023438 -79.40625 19.671875 -77.9375 19.671875 -76.21875 C 19.671875 -74.5 19.023438 -73.023438 17.734375 -71.796875 C 16.453125 -70.578125 14.914062 -69.96875 13.125 -69.96875 Z M 13.125 -69.96875 "/></g></g></g></svg>