<svg xmlns="http://www.w3.org/2000/svg" xmlns:xlink="http://www.w3.org/1999/xlink" width="500" zoomAndPan="magnify" viewBox="0 0 375 374.999991" height="500" preserveAspectRatio="xMidYMid meet" version="1.0"><defs><g/></defs><rect x="-37.5" width="450" fill="rgb(100%, 100%, 100%)" y="-37.499999" height="449.999989" fill-opacity="1"/><rect x="-37.5" width="450" fill="rgb(12.159729%, 12.939453%, 13.328552%)" y="-37.499999" height="449.999989" fill-opacity="1"/><rect x="-37.5" width="450" fill="rgb(100%, 100%, 100%)" y="-37.499999" height="449.999989" fill-opacity="1"/><rect x="-37.5" width="450" fill="rgb(12.159729%, 12.939453%, 13.328552%)" y="-37.499999" height="449.999989" fill-opacity="1"/><g fill="rgb(100%, 100%, 100%)" fill-opacity="1"><g transform="translate(90.059605, 254.750009)"><g><path d="M 44.75 74.078125 C 39.769531 74.078125 35.332031 73.679688 31.4375 72.890625 C 27.550781 72.109375 24.859375 71.34375 23.359375 70.59375 L 30.828125 44.75 C 41.515625 47.476562 50.441406 47.410156 57.609375 44.546875 C 64.773438 41.691406 70.925781 33.140625 76.0625 18.890625 L 82.53125 1 L 11.9375 -190.90625 L 43.75 -190.90625 L 96.453125 -38.78125 L 98.4375 -38.78125 L 151.140625 -190.90625 L 182.953125 -190.90625 L 100.921875 30.828125 C 90.148438 59.660156 71.425781 74.078125 44.75 74.078125 Z M 44.75 74.078125 "/></g></g></g><g fill="rgb(1.179504%, 59.609985%, 61.959839%)" fill-opacity="1"><g transform="translate(35.972959, 244.499984)"><g><path d="M 50.140625 -85.5625 L 50.140625 -74.421875 L 30.96875 -74.421875 L 30.96875 0 L 17.828125 0 L 17.828125 -74.421875 L 4.015625 -74.421875 L 4.015625 -85.5625 L 17.828125 -85.5625 L 17.828125 -97.375 C 17.828125 -102.28125 18.976562 -106.363281 21.28125 -109.625 C 23.582031 -112.894531 26.570312 -115.347656 30.25 -116.984375 C 33.925781 -118.617188 37.804688 -119.4375 41.890625 -119.4375 C 45.117188 -119.4375 47.753906 -119.175781 49.796875 -118.65625 C 51.847656 -118.132812 53.375 -117.648438 54.375 -117.203125 L 50.578125 -105.84375 C 49.910156 -106.070312 48.992188 -106.351562 47.828125 -106.6875 C 46.660156 -107.019531 45.128906 -107.1875 43.234375 -107.1875 C 38.890625 -107.1875 35.757812 -106.085938 33.84375 -103.890625 C 31.925781 -101.703125 30.96875 -98.492188 30.96875 -94.265625 L 30.96875 -85.5625 Z M 50.140625 -85.5625 "/></g></g></g><g fill="rgb(1.179504%, 59.609985%, 61.959839%)" fill-opacity="1"><g transform="translate(292.123124, 244.499984)"><g><path d="M 12.03125 0 L 12.03125 -85.5625 L 25.1875 -85.5625 L 25.1875 0 Z M 18.71875 -99.828125 C 16.15625 -99.828125 13.953125 -100.695312 12.109375 -102.4375 C 10.273438 -104.1875 9.359375 -106.289062 9.359375 -108.75 C 9.359375 -111.195312 10.273438 -113.289062 12.109375 -115.03125 C 13.953125 -116.78125 16.15625 -117.65625 18.71875 -117.65625 C 21.28125 -117.65625 23.476562 -116.78125 25.3125 -115.03125 C 27.15625 -113.289062 28.078125 -111.195312 28.078125 -108.75 C 28.078125 -106.289062 27.15625 -104.1875 25.3125 -102.4375 C 23.476562 -100.695312 21.28125 -99.828125 18.71875 -99.828125 Z M 18.71875 -99.828125 "/></g></g></g><g fill="rgb(100%, 100%, 100%)" fill-opacity="1"><g transform="translate(196.011269, 327.068664)"><g><path d="M 42.046875 -22.296875 L 42.046875 -54.546875 L 50.421875 -54.546875 L 50.421875 0 L 42.046875 0 L 42.046875 -9.234375 L 41.484375 -9.234375 C 40.203125 -6.460938 38.210938 -4.113281 35.515625 -2.1875 C 32.816406 -0.257812 29.40625 0.703125 25.28125 0.703125 C 20.164062 0.703125 15.953125 -0.988281 12.640625 -4.375 C 9.328125 -7.757812 7.671875 -12.929688 7.671875 -19.890625 L 7.671875 -54.546875 L 16.046875 -54.546875 L 16.046875 -20.453125 C 16.046875 -16.472656 17.164062 -13.300781 19.40625 -10.9375 C 21.644531 -8.570312 24.503906 -7.390625 27.984375 -7.390625 C 30.066406 -7.390625 32.191406 -7.921875 34.359375 -8.984375 C 36.523438 -10.046875 38.347656 -11.675781 39.828125 -13.875 C 41.304688 -16.082031 42.046875 -18.890625 42.046875 -22.296875 Z M 42.046875 -22.296875 "/></g></g></g><g fill="rgb(100%, 100%, 100%)" fill-opacity="1"><g transform="translate(267.205503, 327.068664)"><g><path d="M 31.390625 -54.546875 L 31.390625 -47.4375 L 19.75 -47.4375 L 19.75 -15.625 C 19.75 -13.257812 20.097656 -11.488281 20.796875 -10.3125 C 21.492188 -9.144531 22.390625 -8.363281 23.484375 -7.96875 C 24.585938 -7.582031 25.753906 -7.390625 26.984375 -7.390625 C 27.910156 -7.390625 28.671875 -7.441406 29.265625 -7.546875 C 29.859375 -7.648438 30.332031 -7.738281 30.6875 -7.8125 L 32.390625 -0.28125 C 31.816406 -0.0703125 31.019531 0.140625 30 0.359375 C 28.988281 0.585938 27.703125 0.703125 26.140625 0.703125 C 23.765625 0.703125 21.445312 0.195312 19.1875 -0.8125 C 16.925781 -1.832031 15.054688 -3.382812 13.578125 -5.46875 C 12.097656 -7.550781 11.359375 -10.179688 11.359375 -13.359375 L 11.359375 -47.4375 L 3.125 -47.4375 L 3.125 -54.546875 L 11.359375 -54.546875 L 11.359375 -67.609375 L 19.75 -67.609375 L 19.75 -54.546875 Z M 31.390625 -54.546875 "/></g></g></g><g fill="rgb(100%, 100%, 100%)" fill-opacity="1"><g transform="translate(316.667649, 327.068664)"><g><path d="M 30.546875 1.140625 C 25.285156 1.140625 20.753906 -0.0234375 16.953125 -2.359375 C 13.148438 -4.691406 10.222656 -7.957031 8.171875 -12.15625 C 6.128906 -16.363281 5.109375 -21.257812 5.109375 -26.84375 C 5.109375 -32.4375 6.128906 -37.367188 8.171875 -41.640625 C 10.222656 -45.910156 13.085938 -49.242188 16.765625 -51.640625 C 20.453125 -54.046875 24.757812 -55.25 29.6875 -55.25 C 32.53125 -55.25 35.335938 -54.773438 38.109375 -53.828125 C 40.878906 -52.890625 43.398438 -51.359375 45.671875 -49.234375 C 47.941406 -47.117188 49.75 -44.320312 51.09375 -40.84375 C 52.445312 -37.363281 53.125 -33.078125 53.125 -27.984375 L 53.125 -24.4375 L 13.53125 -24.4375 C 13.71875 -18.613281 15.367188 -14.148438 18.484375 -11.046875 C 21.597656 -7.941406 25.617188 -6.390625 30.546875 -6.390625 C 33.828125 -6.390625 36.648438 -7.097656 39.015625 -8.515625 C 41.390625 -9.941406 43.109375 -12.078125 44.171875 -14.921875 L 52.265625 -12.640625 C 50.992188 -8.523438 48.4375 -5.195312 44.59375 -2.65625 C 40.757812 -0.125 36.078125 1.140625 30.546875 1.140625 Z M 13.53125 -31.671875 L 44.609375 -31.671875 C 44.609375 -36.285156 43.253906 -40.113281 40.546875 -43.15625 C 37.847656 -46.207031 34.226562 -47.734375 29.6875 -47.734375 C 26.488281 -47.734375 23.71875 -46.984375 21.375 -45.484375 C 19.03125 -43.992188 17.179688 -42.023438 15.828125 -39.578125 C 14.484375 -37.128906 13.71875 -34.492188 13.53125 -31.671875 Z M 13.53125 -31.671875 "/></g></g></g></svg>